<?xml version="1.0" encoding="iso-8859-1"?>
<!-- Generator: Adobe Illustrator 19.0.0, SVG Export Plug-In . SVG Version: 6.00 Build 0)  -->
<svg version="1.1" id="Capa_1" xmlns="http://www.w3.org/2000/svg" xmlns:xlink="http://www.w3.org/1999/xlink" x="0px" y="0px"
	 viewBox="0 0 512 512" style="enable-background:new 0 0 512 512;" xml:space="preserve">
<path style="fill:#5C5E70;" d="M512,256c0,4.89-0.136,9.749-0.408,14.576c-1.943,34.617-10.773,67.396-25.13,96.998
	c-4.462,9.206-9.456,18.098-14.963,26.645c-7.962,12.403-16.969,24.064-26.896,34.879C397.814,480.057,330.637,512,256,512
	s-141.814-31.943-188.604-82.902C28.62,386.873,3.835,331.567,0.408,270.576C0.136,265.749,0,260.89,0,256
	c0-8.84,0.449-17.565,1.317-26.175C14.43,100.739,123.455,0,256,0c90.321,0,169.723,46.78,215.291,117.436
	c10.679,16.551,19.498,34.419,26.164,53.3c6.635,18.787,11.139,38.578,13.228,59.089C511.551,238.425,512,247.16,512,256z"/>
<g>
	<path style="fill:#797B89;" d="M323.106,126.807L323.106,126.807c0-7.358-5.965-13.323-13.323-13.323h-4.441
		c-7.358,0-13.323-5.965-13.323-13.323l0,0c0-7.358-5.965-13.323-13.324-13.323H74.41c-7.358,0-13.323,5.965-13.323,13.323l0,0
		c0,7.358,5.965,13.323,13.323,13.323h82.159c7.358,0,13.323,5.965,13.323,13.323l0,0c0,7.358-5.965,13.323-13.323,13.323h-37.42
		c-7.358,0-13.323,5.965-13.323,13.324l0,0c0,7.358,5.965,13.324,13.323,13.324h11.304c7.358,0,13.323,5.965,13.323,13.324l0,0
		c0,7.358-5.965,13.324-13.323,13.324h-40.5c-7.358,0-13.323,5.965-13.323,13.324l0,0c0,7.358,5.965,13.324,13.323,13.324h191.876
		c7.358,0,13.323-5.965,13.323-13.324l0,0c0-7.358,5.965-13.324,13.324-13.324h1.309c7.358,0,13.323-5.965,13.323-13.324l0,0
		c0-7.358-5.965-13.324-13.323-13.324H285.36c-7.358,0-13.324-5.965-13.324-13.324l0,0c0-7.358,5.965-13.324,13.324-13.324h24.426
		C317.142,140.129,323.106,134.165,323.106,126.807z"/>
	<path style="fill:#797B89;" d="M96.96,322.469L96.96,322.469c0-7.358,5.965-13.323,13.322-13.323h112.273
		c7.358,0,13.322,5.965,13.322,13.322l0,0c0,7.358-5.965,13.322-13.322,13.322h-36.316c-7.358,0-13.324,5.965-13.324,13.323l0,0
		c0,7.358,5.965,13.323,13.324,13.323h3.702c7.358,0,13.322,5.965,13.322,13.322l0,0c0,7.358-5.965,13.322-13.322,13.322H82.337
		c-7.358,0-13.323-5.965-13.323-13.322l0,0c0-7.358-5.965-13.322-13.322-13.322h-3.702c-7.358,0-13.322-5.965-13.322-13.323l0,0
		c0-7.358,5.965-13.323,13.322-13.323h31.648C90.995,335.793,96.96,329.827,96.96,322.469z"/>
	<path style="fill:#797B89;" d="M422.881,354.252c0,7.356,5.966,13.322,13.322,13.322h50.26
		c-4.462,9.206-9.456,18.098-14.963,26.645h-98.21c-3.678,0-7.011-1.494-9.415-3.897c-2.414-2.414-3.908-5.747-3.908-9.425
		c0-7.367-5.966-13.322-13.322-13.322H282.99c-3.688,0-7.011-1.494-9.425-3.897c-2.414-2.414-3.897-5.747-3.897-9.425
		c0-7.367,5.956-13.333,13.322-13.333h42.935c3.678,0,7.011-1.484,9.425-3.897c2.403-2.414,3.897-5.736,3.897-9.425
		c0-7.356,5.956-13.322,13.322-13.322h126.569c3.678,0,7.011,1.494,9.415,3.908c2.414,2.403,3.908,5.736,3.908,9.415
		c0,7.367-5.966,13.322-13.322,13.322h-42.935C428.847,340.919,422.881,346.885,422.881,354.252z"/>
	<path style="fill:#797B89;" d="M497.455,170.736h-59.434c-7.356,0-13.322-5.966-13.322-13.322v-0.01
		c0-7.356-5.966-13.322-13.322-13.322H390.28c-3.678,0-7.011-1.484-9.415-3.897c-2.414-2.414-3.908-5.736-3.908-9.425
		c0-7.356,5.966-13.322,13.322-13.322h81.011C481.97,133.987,490.789,151.855,497.455,170.736z"/>
</g>
<g>
	<polygon style="fill:#F4A14E;" points="408.022,429.098 103.967,429.098 127.488,346.196 151.009,263.304 174.529,180.402 
		198.05,97.499 221.581,14.597 225.719,0 286.271,0 290.408,14.597 313.94,97.499 337.46,180.402 360.981,263.304 384.502,346.196 	
		"/>
	<path style="fill:#F4A14E;" d="M444.604,429.098C397.814,480.057,330.637,512,256,512s-141.814-31.943-188.604-82.902H444.604z"/>
</g>
<polygon style="fill:#E28D40;" points="255.997,0.001 218.424,429.098 103.967,429.098 225.719,0 "/>
<polygon style="fill:#E8DBC4;" points="408.022,429.098 103.967,429.098 127.488,346.196 384.502,346.196 "/>
<path style="fill:#F9AF6B;" d="M322.697,321.13L322.697,321.13c-10.673,1.776-20.765-5.436-22.542-16.108l-21.875-131.41
	c-1.776-10.673,5.436-20.765,16.108-22.542l0,0c10.673-1.776,20.765,5.436,22.542,16.108l21.875,131.41
	C340.582,309.26,333.37,319.352,322.697,321.13z"/>
<polygon style="fill:#E8DBC4;" points="360.981,263.304 151.009,263.304 174.529,180.402 337.46,180.402 "/>
<polygon style="fill:#F9EED7;" points="332.936,263.304 293.209,263.304 279.406,180.402 319.133,180.402 "/>
<polygon style="fill:#E8DBC4;" points="313.94,97.499 198.05,97.499 221.581,14.597 290.408,14.597 "/>
<g>
	<polygon style="fill:#D6C8B0;" points="127.488,346.196 225.688,346.196 218.425,429.098 103.967,429.098 	"/>
	<polygon style="fill:#D6C8B0;" points="174.529,180.402 240.201,180.402 232.939,263.304 151.009,263.304 	"/>
	<polygon style="fill:#D6C8B0;" points="254.725,14.597 247.463,97.499 198.05,97.499 221.581,14.597 	"/>
</g>
<path style="fill:#E28D40;" d="M256,512c-74.637,0-141.814-31.943-188.604-82.902h102.442C169.838,429.098,188.573,504.226,256,512z
	"/>
<g>
	<path style="fill:#FCF8F2;" d="M80.509,229.825v40.751H0.408C0.136,265.749,0,260.89,0,256c0-8.84,0.449-17.565,1.317-26.175
		H80.509z"/>
	<path style="fill:#FCF8F2;" d="M512,256c0,4.89-0.136,9.749-0.408,14.576H385.337v-40.751h125.346
		C511.551,238.425,512,247.16,512,256z"/>
</g>
<g>
</g>
<g>
</g>
<g>
</g>
<g>
</g>
<g>
</g>
<g>
</g>
<g>
</g>
<g>
</g>
<g>
</g>
<g>
</g>
<g>
</g>
<g>
</g>
<g>
</g>
<g>
</g>
<g>
</g>
</svg>
