<?xml version="1.0" encoding="iso-8859-1"?>
<!-- Generator: Adobe Illustrator 19.0.0, SVG Export Plug-In . SVG Version: 6.00 Build 0)  -->
<svg version="1.1" id="Capa_1" xmlns="http://www.w3.org/2000/svg" xmlns:xlink="http://www.w3.org/1999/xlink" x="0px" y="0px"
	 viewBox="0 0 512 512" style="enable-background:new 0 0 512 512;" xml:space="preserve">
<path style="fill:#C69A6A;" d="M512,256c0,30.271-5.256,59.308-14.9,86.267c-0.543,1.536-1.108,3.062-1.693,4.577
	c-1.411,3.741-2.915,7.44-4.514,11.097c-2.069,4.775-4.284,9.477-6.635,14.096C441.94,455.105,355.621,512,256,512
	c-30.772,0-60.27-5.423-87.594-15.381c-32.559-11.849-62.025-30.124-86.883-53.29c-21.828-20.344-40.103-44.45-53.781-71.293
	c-15.517-30.48-25.119-64.47-27.272-100.467C0.157,266.418,0,261.224,0,256c0-12.413,0.888-24.618,2.602-36.561
	C20.334,95.368,127.028,0,256,0c11.807,0,23.437,0.805,34.826,2.351c23.918,3.25,46.791,9.812,68.127,19.195
	c59.193,26.028,106.642,73.812,132.253,133.224C504.592,185.814,512,220.045,512,256z"/>
<path style="fill:#34ABE0;" d="M512,256c0,30.271-5.256,59.308-14.9,86.267c-0.543,1.536-1.108,3.062-1.693,4.577H290.826V2.351
	c23.918,3.25,46.791,9.812,68.127,19.195c16.52,7.262,32.12,16.217,46.582,26.645c9.613,6.928,18.714,14.503,27.261,22.674
	c24.701,23.583,44.69,52.078,58.41,83.905C504.592,185.814,512,220.045,512,256z"/>
<path style="fill:#B58657;" d="M484.258,372.036C441.94,455.105,355.621,512,256,512c-30.772,0-60.27-5.423-87.594-15.381
	c-32.559-11.849-62.025-30.124-86.883-53.29c-21.828-20.344-40.103-44.45-53.781-71.293H484.258z"/>
<g>
	<path style="fill:#78CAEF;" d="M405.535,48.191h-64.387c-3.678,0-7.011-1.494-9.425-3.897c-2.403-2.414-3.897-5.747-3.897-9.425
		c0-7.356,5.966-13.322,13.322-13.322h17.805C375.474,28.808,391.074,37.763,405.535,48.191z"/>
	<path style="fill:#78CAEF;" d="M491.207,154.77h-134.51c-3.678,0-7.011-1.494-9.425-3.897c-2.403-2.414-3.897-5.747-3.897-9.425
		c0-7.356,5.966-13.322,13.322-13.322h40.5c3.678,0,7.011-1.494,9.425-3.897c2.403-2.414,3.897-5.747,3.897-9.425
		c0-7.356-5.966-13.322-13.322-13.322h-11.306c-3.678,0-7.011-1.494-9.425-3.897c-2.403-2.414-3.897-5.747-3.897-9.425
		c0-7.356,5.966-13.322,13.322-13.322h37.418c3.678,0,7.011-1.494,9.415-3.897l0.073-0.073
		C457.498,94.448,477.487,122.943,491.207,154.77z"/>
	<path style="fill:#78CAEF;" d="M422.655,204.688L422.655,204.688c0-7.358-5.965-13.324-13.322-13.324H297.059
		c-7.358,0-13.322,5.965-13.322,13.324l0,0c0,7.358,5.965,13.324,13.322,13.324h36.316c7.358,0,13.322,5.965,13.322,13.322l0,0
		c0,7.358-5.965,13.324-13.322,13.324h-3.702c-7.358,0-13.322,5.965-13.322,13.324l0,0c0,7.358,5.965,13.322,13.322,13.322h107.605
		c7.358,0,13.322-5.965,13.322-13.322l0,0c0-7.358,5.965-13.324,13.324-13.324h3.702c7.358,0,13.324-5.965,13.324-13.324l0,0
		c0-7.358-5.965-13.322-13.324-13.322h-31.648C428.62,218.012,422.655,212.046,422.655,204.688z"/>
</g>
<path style="fill:#C69A6A;" d="M270.9,483.297c0,7.356-5.956,13.322-13.322,13.322h-89.172
	c-32.559-11.849-62.025-30.124-86.883-53.29h2.121c3.678,0,7.011-1.494,9.415-3.897c2.414-2.414,3.908-5.747,3.908-9.425
	c0-7.367,5.966-13.322,13.322-13.322h126.568c3.678,0,7.011,1.494,9.425,3.897c2.403,2.414,3.897,5.747,3.897,9.425
	c0,7.356-5.966,13.322-13.322,13.322h-42.935c-7.356,0-13.322,5.966-13.322,13.322s5.966,13.322,13.322,13.322h63.655
	c3.689,0,7.011,1.494,9.425,3.897C269.416,476.285,270.9,479.619,270.9,483.297z"/>
<path style="fill:#D3AA81;" d="M37.136,258.247c0,7.356-5.966,13.322-13.322,13.322H0.47C0.157,266.418,0,261.224,0,256
	c0-12.413,0.888-24.618,2.602-36.561c4.65,2.069,7.889,6.74,7.889,12.163c0,3.678,1.484,7.011,3.897,9.425
	c2.414,2.403,5.736,3.897,9.425,3.897c3.678,0,7.011,1.494,9.415,3.897C35.641,251.235,37.136,254.568,37.136,258.247z"/>
<path style="fill:#5C5E70;" d="M251.914,104.208v238.059H44.69V104.208c0-39.037,21.577-73.017,53.457-90.676
	C113.006,5.287,130.1,0.596,148.302,0.596C205.521,0.596,251.914,46.979,251.914,104.208z"/>
<path style="fill:#494B5B;" d="M151.604,104.208v238.059H44.69V104.208c0-39.037,21.577-73.017,53.457-90.676
	C130.027,31.19,151.604,65.181,151.604,104.208z"/>
<path style="fill:#E8DBC4;" d="M497.1,342.267c-3.657,10.24-7.962,20.177-12.842,29.769H44.69v-29.769H497.1z"/>
<path style="fill:#D6C8B0;" d="M490.893,357.94c-2.069,4.775-4.284,9.477-6.635,14.096H44.69V357.94H490.893z"/>
<path style="fill:#FF525D;" d="M449.39,332.737v9.529H44.69V169.859h241.831c36.874,0,70.886,12.257,98.179,32.914
	c9.718,7.356,18.589,15.768,26.425,25.078c3.793,4.504,7.335,9.206,10.637,14.106c5.308,7.899,9.947,16.28,13.824,25.078
	c3.124,7.064,5.757,14.388,7.847,21.943c1.996,7.126,3.511,14.461,4.514,21.943C448.899,318.056,449.39,325.339,449.39,332.737z"/>
<path style="fill:#5C5E70;" d="M435.587,267.034H329.498c-10.825,0-19.592-8.767-19.592-19.592c0-5.413,2.194-10.303,5.736-13.855
	c3.542-3.542,8.443-5.736,13.855-5.736h81.627c3.793,4.504,7.335,9.206,10.637,14.106
	C427.071,249.856,431.71,258.236,435.587,267.034z"/>
<path style="fill:#FF6E7C;" d="M331.846,210.612h-72.095c-5.193,0-9.404-4.21-9.404-9.404l0,0c0-5.193,4.21-9.404,9.404-9.404
	h72.095c5.193,0,9.404,4.21,9.404,9.404l0,0C341.249,206.402,337.039,210.612,331.846,210.612z"/>
<path style="fill:#EF4152;" d="M224.475,309.227c0,8.077-6.541,14.629-14.629,14.629h-74.303c-5.078,0-9.686,2.058-13.019,5.392
	c-3.333,3.333-5.392,7.931-5.392,13.019H44.69V169.859H219c0,0-60.019,0-87.918,38.285c-8.474,11.619-0.251,27.941,14.137,27.941
	h43.729c4.044,0,7.701,1.64,10.344,4.284c2.644,2.644,4.284,6.301,4.284,10.344c0,8.077-6.541,14.629-14.629,14.629h-26.812
	c-4.044,0-7.701,1.641-10.344,4.284c-2.644,2.644-4.284,6.301-4.284,10.344c0,8.077,6.552,14.629,14.629,14.629h47.71
	c4.044,0,7.701,1.641,10.344,4.284C222.835,301.526,224.475,305.183,224.475,309.227z"/>
<g>
	<rect x="120.268" y="372.036" style="fill:#F4A14E;" width="72.095" height="26.648"/>
	<rect x="247.212" y="372.036" style="fill:#F4A14E;" width="72.095" height="26.648"/>
	<rect x="374.157" y="372.036" style="fill:#F4A14E;" width="72.095" height="26.648"/>
</g>
<g>
	<rect x="80.562" y="372.036" style="fill:#E28D40;" width="72.095" height="26.648"/>
	<rect x="207.506" y="372.036" style="fill:#E28D40;" width="72.095" height="26.648"/>
	<rect x="334.461" y="372.036" style="fill:#E28D40;" width="72.095" height="26.648"/>
</g>
<path style="fill:#FFD15C;" d="M447.948,310.92h-39.309c-3.03,0-5.768-1.223-7.753-3.208c-1.985-1.985-3.218-4.733-3.218-7.764
	c0-6.06,4.911-10.971,10.971-10.971h34.795C445.43,296.103,446.945,303.438,447.948,310.92z"/>
<rect x="44.69" y="342.267" style="fill:#D6C8B0;" width="72.443" height="29.769"/>
<path style="fill:#5C5E70;" d="M237.808,224.841v26.394c0,8.725-7.074,15.799-15.799,15.799H95.316
	c-8.725,0-15.799-7.074-15.799-15.799v-26.394c0-8.725,7.074-15.799,15.799-15.799h126.694
	C230.734,209.042,237.808,216.116,237.808,224.841z"/>
<g>
	<path style="fill:#797B89;" d="M217.339,230.682h-28.56c-4.04,0-7.314-3.275-7.314-7.314l0,0c0-4.04,3.275-7.314,7.314-7.314h28.56
		c4.04,0,7.314,3.275,7.314,7.314l0,0C224.653,227.407,221.378,230.682,217.339,230.682z"/>
	<path style="fill:#797B89;" d="M365.017,249.665h-28.56c-4.04,0-7.314-3.275-7.314-7.314l0,0c0-4.04,3.275-7.314,7.314-7.314h28.56
		c4.04,0,7.314,3.275,7.314,7.314l0,0C372.332,246.39,369.057,249.665,365.017,249.665z"/>
</g>
<path style="fill:#494B5B;" d="M203.577,250.713c0,8.077-6.541,14.629-14.629,14.629h-26.812c-2.466,0-4.796,0.616-6.834,1.693
	H95.316c-8.725,0-15.799-7.074-15.799-15.799v-26.394c0-8.725,7.074-15.799,15.799-15.799h35.15
	c-7.429,11.546,0.731,27.042,14.754,27.042h43.729c4.044,0,7.701,1.64,10.344,4.284
	C201.937,243.012,203.577,246.669,203.577,250.713z"/>
<g>
</g>
<g>
</g>
<g>
</g>
<g>
</g>
<g>
</g>
<g>
</g>
<g>
</g>
<g>
</g>
<g>
</g>
<g>
</g>
<g>
</g>
<g>
</g>
<g>
</g>
<g>
</g>
<g>
</g>
</svg>
