<?xml version="1.0" encoding="iso-8859-1"?>
<!-- Generator: Adobe Illustrator 19.0.0, SVG Export Plug-In . SVG Version: 6.00 Build 0)  -->
<svg version="1.1" id="Capa_1" xmlns="http://www.w3.org/2000/svg" xmlns:xlink="http://www.w3.org/1999/xlink" x="0px" y="0px"
	 viewBox="0 0 512 512" style="enable-background:new 0 0 512 512;" xml:space="preserve">
<path style="fill:#E8DBC4;" d="M512,256c0,16.311-1.526,32.256-4.441,47.72c-1.641,8.704-3.72,17.262-6.228,25.631
	c-1.651,5.569-3.5,11.045-5.528,16.447c-0.23,0.627-0.47,1.264-0.711,1.891c-1.369,3.563-2.811,7.095-4.336,10.574
	c-0.773,1.776-1.567,3.542-2.372,5.287c-2.717,5.851-5.642,11.588-8.777,17.189c-3.751,6.708-7.795,13.228-12.121,19.55
	c-3.354,4.921-6.886,9.707-10.564,14.367c-0.397,0.502-0.794,0.993-1.191,1.484c-1.285,1.609-2.581,3.187-3.908,4.754
	c-1.776,2.111-3.584,4.18-5.423,6.228c-15.788,17.565-33.98,32.925-54.042,45.568c-1.944,1.243-3.918,2.445-5.904,3.615
	c-2.8,1.672-5.632,3.281-8.505,4.838c-9.017,4.901-18.369,9.268-28.003,13.072c-2.069,0.815-4.148,1.599-6.238,2.361
	c-2.058,0.752-4.138,1.484-6.228,2.184c-9.55,3.208-19.362,5.862-29.383,7.931c-10.177,2.111-20.585,3.605-31.169,4.462
	c-2.069,0.167-4.148,0.313-6.238,0.428c-2.069,0.125-4.148,0.209-6.228,0.272C261.653,511.958,258.832,512,256,512
	c-7.346,0-14.629-0.313-21.817-0.919c-2.079-0.178-4.159-0.376-6.228-0.606c-2.09-0.219-4.169-0.47-6.238-0.752
	c-7.523-1.003-14.952-2.341-22.256-3.992c-2.09-0.47-4.169-0.961-6.238-1.484c-2.09-0.522-4.169-1.076-6.228-1.661
	c-1.275-0.345-2.539-0.711-3.793-1.087c-3.751-1.108-7.461-2.299-11.139-3.574c-4.274-1.484-8.505-3.082-12.675-4.786
	c-4.211-1.714-8.37-3.542-12.466-5.475c-4.357-2.058-8.652-4.232-12.873-6.52c-3.668-1.985-7.272-4.065-10.825-6.228
	c-3.281-1.996-6.52-4.065-9.707-6.196c-17.659-11.849-33.75-25.84-47.919-41.597c-1.839-2.048-3.647-4.117-5.423-6.228
	c-1.735-2.048-3.427-4.127-5.099-6.238c-4.66-5.904-9.08-12.016-13.228-18.328c-2.152-3.281-4.232-6.614-6.238-10
	c-2.173-3.668-4.253-7.387-6.238-11.159C10.616,339.571,0,299.029,0,256c0-5.841,0.199-11.63,0.585-17.366
	C4.566,179.179,28.85,125.273,66.56,83.811c8.704-9.571,18.129-18.474,28.181-26.645c7.826-6.353,16.029-12.246,24.576-17.659
	c7.314-4.629,14.879-8.903,22.674-12.79c12.11-6.029,24.764-11.128,37.867-15.214h0.01C203.922,4.033,229.491,0,256,0
	c37.961,0,73.989,8.265,106.392,23.092c23.876,10.919,45.777,25.412,65.034,42.789c7.314,6.593,14.252,13.615,20.762,21.013
	c15.423,17.502,28.494,37.146,38.703,58.41c1.515,3.145,2.967,6.343,4.357,9.561c1.014,2.372,2.006,4.754,2.957,7.158
	c1.149,2.905,2.236,5.841,3.281,8.798C506.89,197.465,512,226.137,512,256z"/>
<g>
	<path style="fill:#FCF8F2;" d="M269.437,141.009c2.414,2.403,3.908,5.736,3.908,9.415c0,7.356-5.966,13.322-13.322,13.322h-1.306
		c-3.678,0-7.011,1.494-9.425,3.908c-2.403,2.403-3.897,5.736-3.897,9.415c0,7.356-5.966,13.322-13.333,13.322H40.187
		c-3.678,0-7.011-1.494-9.425-3.908c-2.403-2.403-3.897-5.736-3.897-9.415c0-7.356,5.966-13.322,13.322-13.322h40.5
		c3.678,0,7.011-1.494,9.425-3.908c2.403-2.403,3.897-5.736,3.897-9.415c0-7.356-5.956-13.322-13.322-13.322H69.392
		c-3.688,0-7.011-1.494-9.425-3.908c-2.414-2.403-3.897-5.736-3.897-9.415c0-7.356,5.956-13.322,13.322-13.322h37.418
		c3.678,0,7.011-1.494,9.425-3.908c2.403-2.403,3.897-5.736,3.897-9.415c0-7.367-5.966-13.322-13.322-13.322H66.56
		c8.704-9.571,18.129-18.474,28.181-26.645h134.196c3.678,0,7.011,1.484,9.425,3.897c2.403,2.414,3.897,5.736,3.897,9.425
		c0,7.356,5.966,13.322,13.322,13.322h4.441c7.356,0,13.322,5.956,13.322,13.322c0,7.356-5.966,13.322-13.322,13.322h-24.43
		c-3.678,0-7.011,1.494-9.415,3.908c-2.414,2.403-3.908,5.736-3.908,9.415c0,7.356,5.966,13.322,13.322,13.322h24.43
		C263.701,137.101,267.034,138.595,269.437,141.009z"/>
	<path style="fill:#FCF8F2;" d="M497.486,170.82c-1.641,0.721-3.459,1.128-5.371,1.128h-3.709c-3.678,0-7.011,1.494-9.425,3.897
		c-2.403,2.414-3.897,5.747-3.897,9.425c0,7.356-5.956,13.322-13.322,13.322H354.158c-3.678,0-7.011-1.494-9.425-3.897
		c-2.403-2.414-3.897-5.747-3.897-9.425c0-7.356,5.966-13.322,13.322-13.322h3.709c3.678,0,7.011-1.494,9.415-3.897
		c2.414-2.414,3.908-5.747,3.908-9.425c0-7.356-5.966-13.322-13.322-13.322h-36.321c-3.678,0-7.011-1.494-9.415-3.897
		c-2.414-2.414-3.908-5.747-3.908-9.425c0-7.356,5.966-13.322,13.322-13.322h112.274c7.356,0,13.322,5.966,13.322,13.322
		c0,7.356,5.966,13.322,13.322,13.322h26.426c1.515,3.145,2.967,6.343,4.357,9.561c1.014,2.372,2.006,4.754,2.957,7.158
		C495.355,164.927,496.441,167.863,497.486,170.82z"/>
	<path style="fill:#FCF8F2;" d="M448.188,86.894h-51.44c-3.678,0-7.011-1.494-9.425-3.897c-2.403-2.414-3.897-5.747-3.897-9.425
		c0-7.356-5.966-13.322-13.322-13.322h-63.666c-3.678,0-7.011-1.494-9.415-3.897c-2.414-2.414-3.908-5.747-3.908-9.425
		c0-7.356,5.966-13.322,13.322-13.322h42.935c3.678,0,7.011-1.494,9.425-3.897c1.776-1.776,3.051-4.065,3.594-6.614
		c23.876,10.919,45.777,25.412,65.034,42.789C434.74,72.474,441.678,79.496,448.188,86.894z"/>
</g>
<path style="fill:#FF525D;" d="M308.099,238.644v268.048c-10.177,2.111-20.585,3.605-31.169,4.462
	c-2.069,0.167-4.148,0.313-6.238,0.428c-2.069,0.125-4.148,0.209-6.228,0.272C261.653,511.958,258.832,512,256,512
	c-7.346,0-14.629-0.313-21.817-0.919c-2.079-0.178-4.159-0.376-6.228-0.606c-2.09-0.219-4.169-0.47-6.238-0.752
	c-7.523-1.003-14.952-2.341-22.256-3.992c-2.09-0.47-4.169-0.961-6.238-1.484c-2.09-0.522-4.169-1.076-6.228-1.661
	c-1.275-0.345-2.539-0.711-3.793-1.087c-3.751-1.108-7.461-2.299-11.139-3.574c-4.274-1.484-8.505-3.082-12.675-4.786
	c-4.211-1.714-8.37-3.542-12.466-5.475c-4.357-2.058-8.652-4.232-12.873-6.52c-3.668-1.985-7.272-4.065-10.825-6.228
	c-3.281-1.996-6.52-4.065-9.707-6.196c-17.659-11.849-33.75-25.84-47.919-41.597c-1.839-2.048-3.647-4.117-5.423-6.228
	c-1.735-2.048-3.427-4.127-5.099-6.238c-4.66-5.904-9.08-12.016-13.228-18.328c-2.152-3.281-4.232-6.614-6.238-10
	c-2.173-3.668-4.253-7.387-6.238-11.159C10.616,339.571,0,299.029,0,256v-17.356c0.199,0,0.387,0,0.585-0.01
	c12.079-0.178,23.395-6.04,30.511-15.841l88.221-121.417V34.732c0-2.759,0.324-5.454,0.951-8.014
	c1.494-6.374,4.754-12.079,9.226-16.551C135.774,3.887,144.468,0,154.049,0c10.24,0,19.446,4.441,25.809,11.504h0.01
	c3.814,4.253,6.604,9.456,7.962,15.214c0.627,2.56,0.951,5.256,0.951,8.014v66.644l88.21,121.417
	c3.615,4.995,8.317,8.944,13.657,11.672C295.967,237.171,301.934,238.644,308.099,238.644z"/>
<g>
	<rect x="128.219" y="160.277" style="fill:#5C5E70;" width="51.649" height="67.676"/>
	<rect x="113.079" y="283.167" style="fill:#5C5E70;" width="80.144" height="137.728"/>
	<path style="fill:#5C5E70;" d="M78.357,283.167v137.728H60.176c-1.735-2.048-3.427-4.127-5.099-6.238
		c-4.66-5.904-9.08-12.016-13.228-18.328c-2.152-3.281-4.232-6.614-6.238-10V283.167H78.357z"/>
	<rect x="227.955" y="283.167" style="fill:#5C5E70;" width="42.743" height="137.728"/>
	<path style="fill:#5C5E70;" d="M193.223,474.917v29.33c-2.09-0.522-4.169-1.076-6.228-1.661c-1.275-0.345-2.539-0.711-3.793-1.087
		c-3.751-1.108-7.461-2.299-11.139-3.574c-4.274-1.484-8.505-3.082-12.675-4.786c-4.211-1.714-8.37-3.542-12.466-5.475
		c-4.357-2.058-8.652-4.232-12.873-6.52c-3.668-1.985-7.272-4.065-10.825-6.228L193.223,474.917L193.223,474.917z"/>
	<path style="fill:#5C5E70;" d="M270.691,474.917v36.665c-2.069,0.125-4.148,0.209-6.228,0.272C261.653,511.958,258.832,512,256,512
		c-7.346,0-14.629-0.313-21.817-0.919c-2.079-0.178-4.159-0.376-6.228-0.606v-35.558L270.691,474.917L270.691,474.917z"/>
</g>
<g>
	<path style="fill:#FFD15C;" d="M180.903,154.049h-53.718c-2.873,0-5.204,2.33-5.204,5.204v69.736c0,2.873,2.33,5.204,5.204,5.204
		h53.718c2.863,0,5.193-2.33,5.193-5.204v-69.736C186.096,156.379,183.766,154.049,180.903,154.049z M173.631,221.717h-39.173
		v-55.202h39.173V221.717z"/>
	<path style="fill:#FFD15C;" d="M192.105,276.929h-77.908c-4.054,0-7.346,3.291-7.346,7.346v135.502
		c0,4.054,3.291,7.346,7.346,7.346h77.908c4.065,0,7.356-3.291,7.356-7.346V284.275
		C199.461,280.221,196.169,276.929,192.105,276.929z M186.995,414.657h-67.678V289.395h67.678V414.657z"/>
	<path style="fill:#FFD15C;" d="M77.239,276.929H36.728c-4.065,0-7.356,3.291-7.356,7.346v90.896
		c1.985,3.772,4.065,7.492,6.238,11.159c2.006,3.385,4.086,6.719,6.238,10V289.395h30.271v125.262H55.077
		c1.672,2.111,3.365,4.19,5.099,6.238c1.776,2.111,3.584,4.18,5.423,6.228h11.64c4.054,0,7.346-3.291,7.346-7.346V284.275
		C84.584,280.221,81.293,276.929,77.239,276.929z"/>
	<path style="fill:#FFD15C;" d="M269.584,276.929h-40.521c-4.054,0-7.346,3.291-7.346,7.346v135.502
		c0,4.054,3.291,7.346,7.346,7.346h40.521c4.054,0,7.346-3.291,7.346-7.346V284.275
		C276.929,280.221,273.638,276.929,269.584,276.929z M264.464,414.657h-30.281V289.395h30.281V414.657z"/>
	<rect x="113.079" y="345.799" style="fill:#FFD15C;" width="80.144" height="12.467"/>
	<rect x="227.955" y="345.799" style="fill:#FFD15C;" width="44.524" height="12.467"/>
	<rect x="33.83" y="345.799" style="fill:#FFD15C;" width="44.524" height="12.467"/>
	<rect x="146.923" y="284.745" style="fill:#FFD15C;" width="12.467" height="131.396"/>
	<path style="fill:#FFD15C;" d="M192.105,468.679h-77.908c-0.23,0-0.46,0.01-0.679,0.042c3.187,2.132,6.426,4.2,9.707,6.196
		c3.553,2.163,7.158,4.242,10.825,6.228h52.945v21.441c2.058,0.585,4.138,1.139,6.228,1.661c2.069,0.522,4.148,1.014,6.238,1.484
		v-29.706C199.461,471.97,196.169,468.679,192.105,468.679z"/>
	<path style="fill:#FFD15C;" d="M269.584,468.679h-40.521c-4.054,0-7.346,3.291-7.346,7.346v33.698
		c2.069,0.282,4.148,0.533,6.238,0.752c2.069,0.23,4.148,0.428,6.228,0.606v-29.936h30.281v30.71
		c2.079-0.063,4.159-0.146,6.228-0.272c2.09-0.115,4.169-0.261,6.238-0.428v-35.129C276.929,471.97,273.638,468.679,269.584,468.679
		z"/>
	<path style="fill:#FFD15C;" d="M159.389,476.494v16.645c-4.211-1.714-8.37-3.542-12.466-5.475v-11.17H159.389z"/>
	<path style="fill:#FFD15C;" d="M512,256c0,16.311-1.526,32.256-4.441,47.72c-1.641,8.704-3.72,17.262-6.228,25.631
		c-1.651,5.569-3.5,11.045-5.528,16.447c-0.23,0.627-0.47,1.264-0.711,1.891c-1.369,3.563-2.811,7.095-4.336,10.574
		c-0.773,1.776-1.567,3.542-2.372,5.287c-2.717,5.851-5.642,11.588-8.777,17.189c-3.751,6.708-7.795,13.228-12.121,19.55
		c-3.354,4.921-6.886,9.707-10.564,14.367c-0.397,0.502-0.794,0.993-1.191,1.484c-1.285,1.609-2.581,3.187-3.908,4.754
		c-1.776,2.111-3.584,4.18-5.423,6.228c-15.788,17.565-33.98,32.925-54.042,45.568c-1.944,1.243-3.918,2.445-5.904,3.615
		c-2.8,1.672-5.632,3.281-8.505,4.838c-9.017,4.901-18.369,9.268-28.003,13.072c-2.069,0.815-4.148,1.599-6.238,2.361
		c-2.058,0.752-4.138,1.484-6.228,2.184c-9.55,3.208-19.362,5.862-29.383,7.931V238.644c12.309,0,23.865-5.893,31.096-15.851
		l88.231-121.417V65.881c27.209,24.534,49.121,54.847,63.822,88.984c1.014,2.372,2.006,4.754,2.957,7.158
		C505.689,191.122,512,222.824,512,256z"/>
</g>
<g>
	<rect x="436.318" y="160.277" style="fill:#5C5E70;" width="51.649" height="67.676"/>
	<path style="fill:#5C5E70;" d="M501.332,283.167v46.185c-1.651,5.569-3.5,11.045-5.528,16.447c-0.23,0.627-0.47,1.264-0.711,1.891
		c-1.369,3.563-2.811,7.095-4.336,10.574c-0.773,1.776-1.567,3.542-2.372,5.287c-2.717,5.851-5.642,11.588-8.777,17.189
		c-3.751,6.708-7.795,13.228-12.121,19.55c-3.354,4.921-6.886,9.707-10.564,14.367c-0.397,0.502-0.794,0.993-1.191,1.484
		c-1.285,1.609-2.581,3.187-3.908,4.754h-30.636V283.167H501.332z"/>
	<rect x="343.709" y="283.167" style="fill:#5C5E70;" width="42.743" height="137.728"/>
	<path style="fill:#5C5E70;" d="M386.456,474.917v1.39c-2.8,1.672-5.632,3.281-8.505,4.838c-9.017,4.901-18.369,9.268-28.003,13.072
		c-2.069,0.815-4.148,1.599-6.238,2.361v-21.661H386.456z"/>
</g>
<g>
	<path style="fill:#34ABE0;" d="M491.248,154.864c-0.878-0.512-1.912-0.815-3.009-0.815h-52.182c-3.302,0-5.966,2.665-5.966,5.956
		v68.221c0,3.291,2.664,5.966,5.966,5.966h52.182c3.291,0,5.966-2.675,5.966-5.966v-66.205
		C493.255,159.619,492.262,157.236,491.248,154.864z M481.74,221.717h-39.184v-55.202h39.184V221.717z"/>
	<path style="fill:#34ABE0;" d="M501.603,276.929h-80.687c-3.291,0-5.966,2.675-5.966,5.966v138.271
		c0,3.291,2.675,5.956,5.966,5.956h25.485c1.839-2.048,3.647-4.117,5.423-6.228c1.327-1.567,2.623-3.145,3.908-4.754
		c0.397-0.491,0.794-0.982,1.191-1.484h-29.508V289.395h67.678v58.295c0.24-0.627,0.481-1.264,0.711-1.891
		c2.027-5.402,3.877-10.877,5.528-16.447c2.508-8.37,4.587-16.927,6.228-25.631v-20.825
		C507.559,279.604,504.895,276.929,501.603,276.929z"/>
	<path style="fill:#34ABE0;" d="M386.727,276.929h-43.28c-3.302,0-5.966,2.675-5.966,5.966v138.271c0,3.291,2.664,5.956,5.966,5.956
		h43.28c3.291,0,5.966-2.664,5.966-5.956V282.896C392.694,279.604,390.019,276.929,386.727,276.929z M380.228,414.657h-30.281
		V289.395h30.281V414.657z"/>
	<path style="fill:#34ABE0;" d="M495.804,345.799c-0.23,0.627-0.47,1.264-0.711,1.891c-1.369,3.563-2.811,7.095-4.336,10.574
		h-69.569v-12.466H495.804z"/>
	<rect x="341.932" y="345.799" style="fill:#34ABE0;" width="44.524" height="12.467"/>
	<path style="fill:#34ABE0;" d="M467.487,284.745V400.29c-3.354,4.921-6.886,9.707-10.564,14.367
		c-0.397,0.502-0.794,0.993-1.191,1.484h-0.711V284.745H467.487z"/>
	<path style="fill:#34ABE0;" d="M386.727,468.679h-43.28c-3.302,0-5.966,2.675-5.966,5.966v24.116c2.09-0.7,4.169-1.432,6.228-2.184
		c2.09-0.762,4.169-1.545,6.238-2.361v-13.072h28.003c2.873-1.557,5.705-3.166,8.505-4.838c1.985-1.17,3.96-2.372,5.904-3.615
		C391.555,470.361,389.339,468.679,386.727,468.679z"/>
</g>
<g>
	<path style="fill:#797B89;" d="M166.445,195.678h-3.399c-2.139,0-3.873-1.735-3.873-3.873v-15.241c0-2.139,1.735-3.873,3.873-3.873
		h3.399c2.139,0,3.873,1.735,3.873,3.873v15.241C170.318,193.943,168.584,195.678,166.445,195.678z"/>
	<path style="fill:#797B89;" d="M179.332,319.367h-3.399c-2.139,0-3.873-1.735-3.873-3.873v-15.241c0-2.139,1.735-3.873,3.873-3.873
		h3.399c2.139,0,3.873,1.735,3.873,3.873v15.241C183.205,317.632,181.472,319.367,179.332,319.367z"/>
	<path style="fill:#797B89;" d="M65.132,319.367h-3.399c-2.139,0-3.873-1.735-3.873-3.873v-15.241c0-2.139,1.735-3.873,3.873-3.873
		h3.399c2.139,0,3.873,1.735,3.873,3.873v15.241C69.005,317.632,67.272,319.367,65.132,319.367z"/>
	<path style="fill:#797B89;" d="M257.696,319.367h-3.399c-2.139,0-3.873-1.735-3.873-3.873v-15.241c0-2.139,1.735-3.873,3.873-3.873
		h3.399c2.139,0,3.873,1.735,3.873,3.873v15.241C261.569,317.632,259.835,319.367,257.696,319.367z"/>
	<path style="fill:#797B89;" d="M139.584,319.367h-3.399c-2.139,0-3.873-1.735-3.873-3.873v-15.241c0-2.139,1.735-3.873,3.873-3.873
		h3.399c2.139,0,3.873,1.735,3.873,3.873v15.241C143.457,317.632,141.723,319.367,139.584,319.367z"/>
	<path style="fill:#797B89;" d="M179.332,386.24h-3.399c-2.139,0-3.873-1.735-3.873-3.873v-15.241c0-2.139,1.735-3.873,3.873-3.873
		h3.399c2.139,0,3.873,1.735,3.873,3.873v15.241C183.205,384.506,181.472,386.24,179.332,386.24z"/>
	<path style="fill:#797B89;" d="M65.132,386.24h-3.399c-2.139,0-3.873-1.735-3.873-3.873v-15.241c0-2.139,1.735-3.873,3.873-3.873
		h3.399c2.139,0,3.873,1.735,3.873,3.873v15.241C69.005,384.506,67.272,386.24,65.132,386.24z"/>
	<path style="fill:#797B89;" d="M257.696,386.24h-3.399c-2.139,0-3.873-1.735-3.873-3.873v-15.241c0-2.139,1.735-3.873,3.873-3.873
		h3.399c2.139,0,3.873,1.735,3.873,3.873v15.241C261.569,384.506,259.835,386.24,257.696,386.24z"/>
	<path style="fill:#797B89;" d="M139.584,386.24h-3.399c-2.139,0-3.873-1.735-3.873-3.873v-15.241c0-2.139,1.735-3.873,3.873-3.873
		h3.399c2.139,0,3.873,1.735,3.873,3.873v15.241C143.457,384.506,141.723,386.24,139.584,386.24z"/>
	<path style="fill:#797B89;" d="M183.202,490.423v11.076c-3.751-1.108-7.461-2.299-11.139-3.574v-7.502
		c0-2.142,1.735-3.877,3.866-3.877h3.406C181.467,486.546,183.202,488.281,183.202,490.423z"/>
	<path style="fill:#797B89;" d="M257.696,509.538h-3.399c-2.139,0-3.873-1.735-3.873-3.873v-15.241c0-2.139,1.735-3.873,3.873-3.873
		h3.399c2.139,0,3.873,1.735,3.873,3.873v15.241C261.569,507.804,259.835,509.538,257.696,509.538z"/>
	<path style="fill:#797B89;" d="M473.993,195.678h-3.399c-2.139,0-3.873-1.735-3.873-3.873v-15.241c0-2.139,1.735-3.873,3.873-3.873
		h3.399c2.139,0,3.873,1.735,3.873,3.873v15.241C477.866,193.943,476.133,195.678,473.993,195.678z"/>
	<path style="fill:#797B89;" d="M486.881,319.367h-3.399c-2.139,0-3.873-1.735-3.873-3.873v-15.241c0-2.139,1.735-3.873,3.873-3.873
		h3.399c2.139,0,3.873,1.735,3.873,3.873v15.241C490.754,317.632,489.02,319.367,486.881,319.367z"/>
	<path style="fill:#797B89;" d="M372.681,319.367h-3.399c-2.139,0-3.873-1.735-3.873-3.873v-15.241c0-2.139,1.735-3.873,3.873-3.873
		h3.399c2.139,0,3.873,1.735,3.873,3.873v15.241C376.554,317.632,374.82,319.367,372.681,319.367z"/>
	<path style="fill:#797B89;" d="M447.132,319.367h-3.399c-2.139,0-3.873-1.735-3.873-3.873v-15.241c0-2.139,1.735-3.873,3.873-3.873
		h3.399c2.139,0,3.873,1.735,3.873,3.873v15.241C451.005,317.632,449.272,319.367,447.132,319.367z"/>
	<path style="fill:#797B89;" d="M488.385,363.551c-2.717,5.851-5.642,11.588-8.777,17.189v-13.615c0-2.142,1.735-3.877,3.877-3.877
		h3.396C487.414,363.248,487.926,363.353,488.385,363.551z"/>
	<path style="fill:#797B89;" d="M372.681,386.24h-3.399c-2.139,0-3.873-1.735-3.873-3.873v-15.241c0-2.139,1.735-3.873,3.873-3.873
		h3.399c2.139,0,3.873,1.735,3.873,3.873v15.241C376.554,384.506,374.82,386.24,372.681,386.24z"/>
	<path style="fill:#797B89;" d="M447.132,386.24h-3.399c-2.139,0-3.873-1.735-3.873-3.873v-15.241c0-2.139,1.735-3.873,3.873-3.873
		h3.399c2.139,0,3.873,1.735,3.873,3.873v15.241C451.005,384.506,449.272,386.24,447.132,386.24z"/>
</g>
<circle style="fill:#5C5E70;" cx="154.049" cy="48.347" r="14.106"/>
<g>
</g>
<g>
</g>
<g>
</g>
<g>
</g>
<g>
</g>
<g>
</g>
<g>
</g>
<g>
</g>
<g>
</g>
<g>
</g>
<g>
</g>
<g>
</g>
<g>
</g>
<g>
</g>
<g>
</g>
</svg>
